<?xml version="1.0" encoding="UTF-8" standalone="no"?><!DOCTYPE svg PUBLIC "-//W3C//DTD SVG 1.1//EN" "http://www.w3.org/Graphics/SVG/1.1/DTD/svg11.dtd"><svg width="100%" height="100%" viewBox="0 0 288 75" version="1.1" xmlns="http://www.w3.org/2000/svg" xmlns:xlink="http://www.w3.org/1999/xlink" xml:space="preserve" xmlns:serif="http://www.serif.com/" style="fill-rule:evenodd;clip-rule:evenodd;stroke-linejoin:round;stroke-miterlimit:1.41421;"><g><g><path d="M67.372,56.686l6.731,-27.285l8.803,0l6.772,27.285l-4.462,0l-1.473,-5.855l-10.476,0l-1.474,5.855l-4.421,0Zm10.157,-23.581l-3.386,13.822l8.723,0l-3.346,-13.822l-1.991,0Z" style="fill:#3b4348;fill-rule:nonzero;"/><rect x="93.302" y="28.485" width="4.342" height="28.201" style="fill:#3b4348;fill-rule:nonzero;"/><path d="M110.589,36.332c1.408,0 3.067,0.186 4.979,0.557l0.996,0.2l-0.159,3.425c-2.098,-0.212 -3.651,-0.318 -4.661,-0.318c-2.018,0 -3.372,0.451 -4.062,1.354c-0.691,0.903 -1.036,2.602 -1.036,5.098c0,2.496 0.332,4.223 0.996,5.178c0.664,0.956 2.045,1.434 4.142,1.434l4.661,-0.318l0.119,3.465c-2.682,0.478 -4.7,0.717 -6.054,0.717c-3.028,0 -5.159,-0.816 -6.393,-2.45c-1.235,-1.633 -1.853,-4.308 -1.853,-8.026c0,-3.717 0.651,-6.366 1.952,-7.946c1.301,-1.58 3.426,-2.37 6.373,-2.37Z" style="fill:#3b4348;fill-rule:nonzero;"/></g><g><path d="M121.623,38.921c1.381,-1.726 3.665,-2.589 6.851,-2.589c3.187,0 5.464,0.863 6.832,2.589c1.367,1.726 2.051,4.315 2.051,7.767c0,3.452 -0.664,6.055 -1.992,7.807c-1.327,1.753 -3.624,2.629 -6.891,2.629c-3.266,0 -5.563,-0.876 -6.89,-2.629c-1.328,-1.752 -1.992,-4.355 -1.992,-7.807c0,-3.452 0.677,-6.041 2.031,-7.767Zm3.267,12.945c0.61,1.063 1.805,1.594 3.584,1.594c1.78,0 2.975,-0.531 3.585,-1.594c0.611,-1.062 0.916,-2.801 0.916,-5.218c0,-2.416 -0.325,-4.129 -0.975,-5.138c-0.651,-1.009 -1.826,-1.514 -3.526,-1.514c-1.699,0 -2.874,0.505 -3.525,1.514c-0.65,1.009 -0.976,2.722 -0.976,5.138c0,2.417 0.306,4.156 0.917,5.218Z" style="fill:#3b4348;fill-rule:nonzero;"/><path d="M139.468,36.77l4.541,0l3.824,16.212l1.274,0l3.984,-16.212l4.421,0l-5.178,19.916l-7.728,0l-5.138,-19.916Z" style="fill:#3b4348;fill-rule:nonzero;"/><path d="M174.759,53.101l1.116,-0.119l0.079,3.226c-3.027,0.611 -5.709,0.916 -8.046,0.916c-2.947,0 -5.065,-0.81 -6.353,-2.43c-1.288,-1.619 -1.932,-4.209 -1.932,-7.767c0,-7.063 2.881,-10.595 8.644,-10.595c5.576,0 8.364,3.04 8.364,9.121l-0.278,3.107l-12.348,0c0.026,1.647 0.385,2.855 1.075,3.625c0.691,0.77 1.978,1.155 3.864,1.155c1.885,0 3.824,-0.08 5.815,-0.239Zm-2.39,-7.887c0,-1.965 -0.312,-3.339 -0.936,-4.122c-0.624,-0.784 -1.679,-1.175 -3.166,-1.175c-1.487,0 -2.57,0.411 -3.247,1.235c-0.677,0.823 -1.029,2.177 -1.055,4.062l8.404,0Z" style="fill:#3b4348;fill-rule:nonzero;"/><path d="M201.208,46.25l0,-3.904l7.767,0l0,13.862c-0.717,0.186 -2.171,0.385 -4.362,0.597c-2.19,0.213 -3.777,0.319 -4.76,0.319c-4.142,0 -6.997,-1.142 -8.563,-3.425c-1.567,-2.284 -2.351,-5.862 -2.351,-10.735c0,-4.873 0.804,-8.425 2.41,-10.655c1.607,-2.231 4.388,-3.346 8.345,-3.346c2.337,0 4.966,0.265 7.887,0.797l1.394,0.278l-0.159,3.506c-3.213,-0.425 -6.095,-0.638 -8.644,-0.638c-2.549,0 -4.295,0.717 -5.238,2.151c-0.943,1.434 -1.414,4.09 -1.414,7.967c0,3.877 0.445,6.552 1.335,8.026c0.889,1.474 2.688,2.21 5.397,2.21c1.938,0 3.385,-0.119 4.341,-0.358l0,-6.652l-3.385,0Z" style="fill:#3b4348;fill-rule:nonzero;"/><path d="M213.994,56.686l0,-19.916l4.302,0l0,2.39c2.257,-1.461 4.514,-2.403 6.771,-2.828l0,4.342c-2.284,0.451 -4.235,1.035 -5.855,1.752l-0.877,0.359l0,13.901l-4.341,0Z" style="fill:#3b4348;fill-rule:nonzero;"/></g><g><path d="M229.288,38.921c1.381,-1.726 3.665,-2.589 6.851,-2.589c3.187,0 5.464,0.863 6.832,2.589c1.367,1.726 2.051,4.315 2.051,7.767c0,3.452 -0.664,6.055 -1.992,7.807c-1.327,1.753 -3.624,2.629 -6.891,2.629c-3.266,0 -5.563,-0.876 -6.89,-2.629c-1.328,-1.752 -1.992,-4.355 -1.992,-7.807c0,-3.452 0.677,-6.041 2.031,-7.767Zm3.267,12.945c0.61,1.063 1.805,1.594 3.584,1.594c1.78,0 2.975,-0.531 3.585,-1.594c0.611,-1.062 0.916,-2.801 0.916,-5.218c0,-2.416 -0.325,-4.129 -0.975,-5.138c-0.651,-1.009 -1.826,-1.514 -3.526,-1.514c-1.699,0 -2.874,0.505 -3.525,1.514c-0.65,1.009 -0.976,2.722 -0.976,5.138c0,2.417 0.306,4.156 0.917,5.218Z" style="fill:#3b4348;fill-rule:nonzero;"/><path d="M261.393,36.77l4.302,0l0,19.916l-4.302,0l0,-1.235c-1.939,1.116 -3.731,1.673 -5.377,1.673c-2.735,0 -4.568,-0.737 -5.497,-2.211c-0.93,-1.473 -1.394,-4.056 -1.394,-7.747l0,-10.396l4.341,0l0,10.436c0,2.39 0.2,3.996 0.598,4.82c0.398,0.823 1.328,1.234 2.788,1.234c1.434,0 2.749,-0.265 3.943,-0.796l0.598,-0.239l0,-15.455Z" style="fill:#3b4348;fill-rule:nonzero;"/><path d="M270.953,65.25l0,-28.48l4.302,0l0,1.235c1.832,-1.116 3.545,-1.673 5.138,-1.673c2.629,0 4.554,0.803 5.775,2.41c1.222,1.606 1.833,4.302 1.833,8.086c0,3.784 -0.697,6.446 -2.091,7.986c-1.395,1.54 -3.672,2.31 -6.832,2.31c-1.088,0 -2.35,-0.119 -3.784,-0.358l0,8.484l-4.341,0Zm8.683,-25.054c-1.248,0 -2.496,0.278 -3.744,0.836l-0.598,0.279l0,11.75c1.063,0.213 2.231,0.319 3.506,0.319c1.805,0 3.053,-0.518 3.744,-1.554c0.69,-1.035 1.035,-2.801 1.035,-5.297c0,-4.222 -1.314,-6.333 -3.943,-6.333Z" style="fill:#3b4348;fill-rule:nonzero;"/></g></g><path d="M44.622,70.942l-5.104,0l-11.156,-33.466l-11.156,33.466l-17.206,0l22.311,-66.933l22.311,66.933Z" style="fill:#3b4348;"/><path d="M55.026,70.942l-15.508,0l-11.074,-33.221l7.754,-23.264l18.828,56.485Z" style="fill:#58646b;"/></svg>