<?xml version="1.0" encoding="UTF-8" standalone="no"?><!DOCTYPE svg PUBLIC "-//W3C//DTD SVG 1.1//EN" "http://www.w3.org/Graphics/SVG/1.1/DTD/svg11.dtd"><svg width="100%" height="100%" viewBox="0 0 288 75" version="1.1" xmlns="http://www.w3.org/2000/svg" xmlns:xlink="http://www.w3.org/1999/xlink" xml:space="preserve" xmlns:serif="http://www.serif.com/" style="fill-rule:evenodd;clip-rule:evenodd;stroke-linejoin:round;stroke-miterlimit:1.41421;"><g><path d="M25.205,20.773c2.539,-1.315 5.134,-1.972 7.786,-1.972c2.652,0 4.936,0.414 6.851,1.241c1.916,0.827 3.599,2.012 5.049,3.553c3.151,3.423 4.726,7.752 4.726,12.988c0,5.735 -1.711,10.359 -5.134,13.872c-3.286,3.378 -7.378,5.066 -12.274,5.066c-4.307,0 -7.854,-1.122 -10.642,-3.366c-3.128,-2.538 -4.692,-6.04 -4.692,-10.506l0,-37.23l8.33,0l0,16.354Zm0,20.774c0,3.99 2.482,5.984 7.446,5.984c2.425,0 4.466,-1.065 6.12,-3.196c1.678,-2.176 2.516,-4.885 2.516,-8.126c0,-3.264 -0.884,-5.723 -2.652,-7.378c-1.586,-1.473 -3.717,-2.21 -6.392,-2.21c-1.609,0 -3.389,0.544 -5.338,1.632c-0.612,0.34 -1.179,0.714 -1.7,1.122l0,12.172Z" style="fill:#3b4348;fill-rule:nonzero;"/><path d="M75.247,52.903c-3.219,1.746 -6.131,2.618 -8.738,2.618c-2.607,0 -4.839,-0.243 -6.698,-0.731c-1.859,-0.487 -3.434,-1.207 -4.726,-2.159c-2.629,-1.926 -3.944,-4.714 -3.944,-8.364c0,-3.264 1.609,-5.984 4.828,-8.16c3.491,-2.357 8.228,-3.536 14.212,-3.536l1.36,0.034c0.272,0.023 0.578,0.04 0.918,0.051c0.34,0.011 0.646,0.04 0.918,0.085c-0.181,-3.627 -1.745,-5.746 -4.692,-6.358c-0.975,-0.204 -2.012,-0.306 -3.111,-0.306c-1.099,0 -2.176,0.096 -3.23,0.289c-1.054,0.193 -2.08,0.448 -3.077,0.765c-2.199,0.703 -3.774,1.507 -4.726,2.414l-0.102,-0.068l-1.02,-7.514c4.012,-2.108 8.398,-3.162 13.158,-3.162c7.389,0 12.115,2.663 14.178,7.99c0.657,1.7 0.986,3.615 0.986,5.746l0,12.308c0,2.63 0.929,4.42 2.788,5.372l-6.154,5.644c-1.292,-0.68 -2.335,-1.666 -3.128,-2.958Zm-1.836,-14.042c-0.612,-0.113 -1.247,-0.17 -1.904,-0.17l-1.36,0c-5.009,0 -8.194,1.111 -9.554,3.332c-0.408,0.657 -0.612,1.349 -0.612,2.074c0,0.726 0.13,1.366 0.391,1.921c0.261,0.556 0.697,1.015 1.309,1.377c1.179,0.68 2.93,1.02 5.253,1.02c2.323,0 4.494,-0.555 6.511,-1.666c-0.023,-0.249 -0.034,-0.51 -0.034,-0.782l0,-7.106Z" style="fill:#3b4348;fill-rule:nonzero;"/><path d="M81.333,66.843l2.244,-1.802c3.377,-2.742 6.177,-6.788 8.398,-12.138l1.564,-3.774l-13.022,-29.648l9.52,0l8.16,20.536l7.582,-20.536l9.792,0c-1.178,1.632 -2.618,4.669 -4.318,9.112l-5.1,12.614c-6.822,16.048 -12.172,25.614 -16.048,28.696l-8.772,-3.06Z" style="fill:#3b4348;fill-rule:nonzero;"/><path d="M110.649,19.481l9.146,0l6.324,25.534l6.8,-25.534l7.82,0l7.038,26.078l6.324,-26.078l8.228,0l-10.472,35.53l-8.806,0l-6.732,-23.29l-6.256,23.29l-8.738,0l-10.676,-35.53Z" style="fill:#3b4348;fill-rule:nonzero;"/><path d="M159.739,37.433c0,-2.493 0.425,-4.879 1.275,-7.157c0.85,-2.278 2.068,-4.267 3.655,-5.967c3.468,-3.672 7.967,-5.508 13.498,-5.508c5.508,0 9.883,1.734 13.124,5.202c3.105,3.309 4.658,7.605 4.658,12.886c0,5.281 -1.598,9.656 -4.794,13.124c-3.377,3.672 -7.854,5.508 -13.43,5.508c-5.758,0 -10.268,-1.802 -13.532,-5.406c-2.97,-3.286 -4.454,-7.514 -4.454,-12.682Zm8.262,-0.204c0,1.428 0.238,2.811 0.714,4.148c0.476,1.337 1.156,2.482 2.04,3.434c1.881,2.063 4.352,3.094 7.412,3.094c2.833,0 5.066,-1.008 6.698,-3.026c1.587,-1.949 2.38,-4.488 2.38,-7.616c0,-3.173 -0.816,-5.735 -2.448,-7.684c-1.745,-2.085 -4.137,-3.128 -7.174,-3.128c-3.083,0 -5.497,1.111 -7.242,3.332c-1.587,2.04 -2.38,4.522 -2.38,7.446Z" style="fill:#3b4348;fill-rule:nonzero;"/><path d="M197.636,37.433c0,-2.493 0.425,-4.879 1.275,-7.157c0.85,-2.278 2.068,-4.267 3.655,-5.967c3.468,-3.672 7.968,-5.508 13.498,-5.508c5.508,0 9.883,1.734 13.124,5.202c3.106,3.309 4.658,7.605 4.658,12.886c0,5.281 -1.598,9.656 -4.794,13.124c-3.377,3.672 -7.854,5.508 -13.43,5.508c-5.757,0 -10.268,-1.802 -13.532,-5.406c-2.969,-3.286 -4.454,-7.514 -4.454,-12.682Zm8.262,-0.204c0,1.428 0.238,2.811 0.714,4.148c0.476,1.337 1.156,2.482 2.04,3.434c1.882,2.063 4.352,3.094 7.412,3.094c2.834,0 5.066,-1.008 6.698,-3.026c1.587,-1.949 2.38,-4.488 2.38,-7.616c0,-3.173 -0.816,-5.735 -2.448,-7.684c-1.745,-2.085 -4.136,-3.128 -7.174,-3.128c-3.082,0 -5.496,1.111 -7.242,3.332c-1.586,2.04 -2.38,4.522 -2.38,7.446Z" style="fill:#3b4348;fill-rule:nonzero;"/><path d="M261.877,53.107c-2.879,1.61 -5.757,2.414 -8.636,2.414c-2.879,0 -5.395,-0.453 -7.548,-1.36c-2.154,-0.906 -3.99,-2.153 -5.508,-3.74c-3.128,-3.264 -4.692,-7.502 -4.692,-12.716c0,-5.395 1.813,-9.883 5.44,-13.464c3.649,-3.627 8.318,-5.44 14.008,-5.44c1.745,0 3.457,0.227 5.134,0.68l0,-15.13l8.33,0l0,36.346c0,3.015 0.142,4.987 0.425,5.916c0.283,0.93 0.601,1.61 0.952,2.04c0.351,0.431 0.799,0.839 1.343,1.224l-6.392,5.644c-1.179,-0.634 -2.131,-1.439 -2.856,-2.414Zm-7.038,-5.406c1.904,0 3.649,-0.362 5.236,-1.088l0,-18.836c-1.587,-0.657 -3.309,-0.986 -5.168,-0.986c-1.859,0 -3.451,0.249 -4.777,0.748c-1.326,0.499 -2.465,1.19 -3.417,2.074c-1.995,1.859 -2.992,4.273 -2.992,7.242c0,3.241 0.906,5.825 2.72,7.752c1.949,2.063 4.748,3.094 8.398,3.094Z" style="fill:#3b4348;fill-rule:nonzero;"/></g></svg>