<?xml version="1.0" encoding="UTF-8" standalone="no"?><!DOCTYPE svg PUBLIC "-//W3C//DTD SVG 1.1//EN" "http://www.w3.org/Graphics/SVG/1.1/DTD/svg11.dtd"><svg width="100%" height="100%" viewBox="0 0 30 32" version="1.1" xmlns="http://www.w3.org/2000/svg" xmlns:xlink="http://www.w3.org/1999/xlink" xml:space="preserve" xmlns:serif="http://www.serif.com/" style="fill-rule:evenodd;clip-rule:evenodd;stroke-miterlimit:1.5;"><g><path d="M29.01,12.816c0,-1.077 -0.873,-1.95 -1.95,-1.95l-23.931,0c-1.076,0 -1.95,0.873 -1.95,1.95l0,15.6c0,1.076 0.874,1.95 1.95,1.95l23.931,0c1.077,0 1.95,-0.874 1.95,-1.95l0,-15.6Z" style="fill:#e6e6e6;"/><path d="M8.379,23.47l1.014,-2.684l17.494,6.606l-1.014,2.684l-17.494,-6.606Z" style="fill:#fff;stroke:#000;stroke-width:1.5px;"/><path d="M23.264,21.378l-1.013,-2.684l-17.494,6.606l1.013,2.684l17.494,-6.606Z" style="fill:#41c75e;stroke:#000;stroke-width:1.5px;"/><path d="M13.958,6.072c0.949,-1.277 2.481,-2.106 4.207,-2.106c2.665,0 4.865,1.975 5.177,4.521c1.502,0.39 2.613,1.758 2.613,3.384c0,1.929 -1.564,3.495 -3.49,3.495l-14.395,0c-1.926,0 -3.49,-1.566 -3.49,-3.495c0,-1.929 1.564,-3.495 3.49,-3.495c0.39,0 0.765,0.064 1.116,0.183c0.336,-1.578 1.737,-2.763 3.412,-2.763c0.483,0 0.942,0.098 1.36,0.276Z" style="fill:#fff;"/><path d="M15.458,3.405c0.949,-1.276 2.481,-2.106 4.207,-2.106c2.665,0 4.865,1.976 5.177,4.521c1.502,0.39 2.613,1.758 2.613,3.384c0,1.929 -1.564,3.495 -3.49,3.495l-14.395,0c-1.926,0 -3.49,-1.566 -3.49,-3.495c0,-1.929 1.564,-3.495 3.49,-3.495c0.39,0 0.765,0.064 1.116,0.183c0.336,-1.578 1.737,-2.762 3.412,-2.762c0.483,0 0.942,0.098 1.36,0.275Z" style="fill:none;stroke:#000;stroke-width:1.5px;stroke-miterlimit:1.41421;"/><path d="M4.018,1.849l6.375,0" style="fill:none;stroke:#d9d9d9;stroke-width:1.5px;"/><path d="M1.352,6.425l3.831,0" style="fill:none;stroke:#d9d9d9;stroke-width:1.5px;"/></g></svg>