<?xml version="1.0" encoding="UTF-8" standalone="no"?><!DOCTYPE svg PUBLIC "-//W3C//DTD SVG 1.1//EN" "http://www.w3.org/Graphics/SVG/1.1/DTD/svg11.dtd"><svg width="100%" height="100%" viewBox="0 0 40 40" version="1.1" xmlns="http://www.w3.org/2000/svg" xmlns:xlink="http://www.w3.org/1999/xlink" xml:space="preserve" xmlns:serif="http://www.serif.com/" style="fill-rule:evenodd;clip-rule:evenodd;stroke-miterlimit:1.5;"><rect id="Brand" x="0" y="0" width="40" height="40" style="fill:none;"/><clipPath id="_clip1"><rect x="0" y="0" width="40" height="40"/></clipPath><g clip-path="url(#_clip1)"><path d="M40,16.6c0,-1.435 -1.165,-2.6 -2.6,-2.6l-31.908,0c-1.435,0 -2.6,1.165 -2.6,2.6l0,20.8c0,1.435 1.165,2.6 2.6,2.6l31.908,0c1.435,0 2.6,-1.165 2.6,-2.6l0,-20.8Z" style="fill:#b7dcf4;"/><path d="M9.959,30.017l1.351,-3.579l23.326,8.808l-1.352,3.579l-23.325,-8.808Z" style="fill:#dcf4b7;stroke:#3b4348;stroke-width:2px;"/><path d="M32.338,28.017l-1.351,-3.579l-23.325,8.808l1.351,3.579l23.325,-8.808Z" style="fill:#f4b7dc;stroke:#3b4348;stroke-width:2px;"/><path d="M22.93,7.608c1.266,-1.702 3.308,-2.808 5.61,-2.808c3.552,0 6.486,2.634 6.902,6.029c2.003,0.519 3.484,2.343 3.484,4.511c0,2.572 -2.085,4.66 -4.653,4.66l-19.194,0c-2.568,0 -4.653,-2.088 -4.653,-4.66c0,-2.572 2.085,-4.66 4.653,-4.66c0.52,0 1.021,0.086 1.488,0.244c0.449,-2.104 2.317,-3.683 4.55,-3.683c0.643,0 1.256,0.131 1.813,0.367Z" style="fill:#fff;"/><path d="M19.93,4.053c1.266,-1.702 3.308,-2.808 5.61,-2.808c3.552,0 6.486,2.634 6.902,6.028c2.003,0.52 3.484,2.344 3.484,4.512c0,2.572 -2.085,4.66 -4.653,4.66l-19.194,0c-2.568,0 -4.653,-2.088 -4.653,-4.66c0,-2.572 2.085,-4.66 4.653,-4.66c0.52,0 1.021,0.085 1.488,0.243c0.449,-2.103 2.317,-3.683 4.55,-3.683c0.643,0 1.256,0.131 1.813,0.368Z" style="fill:none;stroke:#3b4348;stroke-width:2px;stroke-miterlimit:1.41421;"/><path d="M4.676,1.978l8.5,0" style="fill:#b7dcf4;fill-opacity:0.8;stroke:#b7dcf4;stroke-width:2px;"/><path d="M1.122,8.079l5.108,0" style="fill:none;stroke:#b7dcf4;stroke-width:2px;"/></g></svg>