<?xml version="1.0" encoding="UTF-8" standalone="no"?><!DOCTYPE svg PUBLIC "-//W3C//DTD SVG 1.1//EN" "http://www.w3.org/Graphics/SVG/1.1/DTD/svg11.dtd"><svg width="100%" height="100%" viewBox="0 0 300 160" version="1.1" xmlns="http://www.w3.org/2000/svg" xmlns:xlink="http://www.w3.org/1999/xlink" xml:space="preserve" xmlns:serif="http://www.serif.com/" style="fill-rule:evenodd;clip-rule:evenodd;stroke-linejoin:round;stroke-miterlimit:1.41421;"><path d="M131.622,29.563c13.321,-17.92 34.818,-29.563 59.049,-29.563c37.393,0 68.273,27.727 72.647,63.459c21.088,5.47 36.682,24.67 36.682,47.49c0,27.072 -21.947,49.051 -48.98,49.051l-202.04,0c-27.033,0 -48.98,-21.979 -48.98,-49.051c0,-27.072 21.947,-49.051 48.98,-49.051c5.474,0 10.74,0.901 15.657,2.564c4.724,-22.143 24.388,-38.769 47.899,-38.769c6.77,0 13.22,1.379 19.086,3.87Z" style="fill:#fff;"/></svg>