<?xml version="1.0" encoding="UTF-8" standalone="no"?><!DOCTYPE svg PUBLIC "-//W3C//DTD SVG 1.1//EN" "http://www.w3.org/Graphics/SVG/1.1/DTD/svg11.dtd"><svg width="100%" height="100%" viewBox="0 0 288 75" version="1.1" xmlns="http://www.w3.org/2000/svg" xmlns:xlink="http://www.w3.org/1999/xlink" xml:space="preserve" xmlns:serif="http://www.serif.com/" style="fill-rule:evenodd;clip-rule:evenodd;stroke-linejoin:round;stroke-miterlimit:1.41421;"><g id="Logo"><g><path d="M76.677,48.504c-2.313,0.502 -4.397,0.753 -6.252,0.753c-1.854,0 -3.338,-0.229 -4.451,-0.688c-1.113,-0.458 -1.986,-1.189 -2.618,-2.192c-0.633,-1.004 -1.07,-2.182 -1.31,-3.535c-0.24,-1.353 -0.36,-3.055 -0.36,-5.106c0,-4.299 0.606,-7.294 1.817,-8.985c1.211,-1.691 3.442,-2.536 6.693,-2.536c1.877,0 4.048,0.294 6.513,0.884l-0.131,3.6c-2.16,-0.327 -3.954,-0.491 -5.384,-0.491c-1.429,0 -2.449,0.191 -3.06,0.573c-0.611,0.382 -1.064,1.107 -1.358,2.176c-0.295,1.069 -0.442,2.891 -0.442,5.466c0,2.575 0.3,4.359 0.9,5.351c0.6,0.993 1.8,1.49 3.6,1.49c1.8,0 3.715,-0.153 5.744,-0.459l0.099,3.699Z" style="fill:#3b4348;fill-rule:nonzero;"/><g><path d="M80.576,34.365c1.156,-1.506 3.087,-2.259 5.793,-2.259c2.706,0 4.637,0.748 5.793,2.242c1.157,1.495 1.735,3.595 1.735,6.301c0,5.738 -2.509,8.608 -7.528,8.608c-5.018,0 -7.528,-2.87 -7.528,-8.608c0,-2.706 0.579,-4.801 1.735,-6.284Zm3.371,9.982c0.458,0.786 1.266,1.179 2.422,1.179c1.157,0 1.959,-0.393 2.406,-1.179c0.447,-0.785 0.671,-2.018 0.671,-3.698c0,-1.68 -0.224,-2.902 -0.671,-3.666c-0.447,-0.764 -1.249,-1.146 -2.406,-1.146c-1.156,0 -1.958,0.382 -2.405,1.146c-0.448,0.764 -0.671,1.986 -0.671,3.666c0,1.68 0.218,2.913 0.654,3.698Z" style="fill:#3b4348;fill-rule:nonzero;"/><path d="M101.49,48.864l-4.385,0l0,-16.365l4.353,0l0,0.916c1.483,-0.872 2.847,-1.309 4.091,-1.309c2.182,0 3.688,0.644 4.517,1.931c0.829,1.288 1.243,3.273 1.243,5.957l0,8.87l-4.385,0l0,-8.739c0,-1.396 -0.164,-2.427 -0.491,-3.093c-0.328,-0.665 -0.982,-0.998 -1.964,-0.998c-0.895,0 -1.757,0.153 -2.586,0.458l-0.393,0.131l0,12.241Z" style="fill:#3b4348;fill-rule:nonzero;"/><path d="M119.59,48.864l-4.386,0l0,-16.365l4.353,0l0,0.916c1.484,-0.872 2.848,-1.309 4.092,-1.309c2.182,0 3.687,0.644 4.516,1.931c0.83,1.288 1.244,3.273 1.244,5.957l0,8.87l-4.386,0l0,-8.739c0,-1.396 -0.163,-2.427 -0.491,-3.093c-0.327,-0.665 -0.982,-0.998 -1.963,-0.998c-0.895,0 -1.757,0.153 -2.586,0.458l-0.393,0.131l0,12.241Z" style="fill:#3b4348;fill-rule:nonzero;"/><path d="M136.904,42.547c0.022,1.004 0.289,1.729 0.802,2.177c0.513,0.447 1.249,0.671 2.209,0.671c2.03,0 3.841,-0.066 5.434,-0.197l0.916,-0.098l0.066,3.24c-2.51,0.611 -4.779,0.917 -6.808,0.917c-2.466,0 -4.255,-0.655 -5.368,-1.964c-1.113,-1.309 -1.669,-3.437 -1.669,-6.382c0,-5.87 2.411,-8.805 7.233,-8.805c4.757,0 7.135,2.466 7.135,7.397l-0.327,3.044l-9.623,0Zm5.63,-3.338c0,-1.31 -0.207,-2.221 -0.622,-2.733c-0.415,-0.513 -1.14,-0.769 -2.177,-0.769c-1.036,0 -1.767,0.267 -2.192,0.801c-0.426,0.535 -0.65,1.435 -0.671,2.701l5.662,0Z" style="fill:#3b4348;fill-rule:nonzero;"/><path d="M156.117,32.106c1.134,0 2.585,0.175 4.353,0.524l0.884,0.196l-0.131,3.47c-1.724,-0.175 -3.001,-0.262 -3.83,-0.262c-1.505,0 -2.504,0.322 -2.995,0.965c-0.49,0.644 -0.736,1.861 -0.736,3.65c0,1.789 0.246,3.016 0.736,3.682c0.491,0.665 1.501,0.998 3.028,0.998l3.797,-0.262l0.131,3.502c-2.335,0.459 -4.113,0.688 -5.335,0.688c-2.422,0 -4.163,-0.682 -5.221,-2.046c-1.058,-1.364 -1.587,-3.551 -1.587,-6.562c0,-3.011 0.545,-5.188 1.636,-6.53c1.091,-1.342 2.848,-2.013 5.27,-2.013Z" style="fill:#3b4348;fill-rule:nonzero;"/><path d="M173.66,36.23l-4.026,0l0,6.71c0,0.654 0.017,1.118 0.049,1.391c0.033,0.273 0.153,0.507 0.36,0.704c0.208,0.196 0.53,0.294 0.966,0.294l2.487,-0.065l0.197,3.502c-1.462,0.327 -2.575,0.491 -3.339,0.491c-1.963,0 -3.305,-0.442 -4.025,-1.326c-0.72,-0.884 -1.081,-2.515 -1.081,-4.893l0,-6.808l-1.931,0l0,-3.731l1.931,0l0,-4.549l4.386,0l0,4.549l4.026,0l0,3.731Z" style="fill:#3b4348;fill-rule:nonzero;"/><path d="M176.508,48.864l0,-16.365l4.385,0l0,16.365l-4.385,0Zm0,-18.46l0,-4.451l4.385,0l0,4.451l-4.385,0Z" style="fill:#3b4348;fill-rule:nonzero;"/><path d="M189.338,48.864l-4.386,0l0,-16.365l4.353,0l0,0.916c1.484,-0.872 2.848,-1.309 4.091,-1.309c2.182,0 3.688,0.644 4.517,1.931c0.829,1.288 1.244,3.273 1.244,5.957l0,8.87l-4.386,0l0,-8.739c0,-1.396 -0.164,-2.427 -0.491,-3.093c-0.327,-0.665 -0.982,-0.998 -1.964,-0.998c-0.894,0 -1.756,0.153 -2.585,0.458l-0.393,0.131l0,12.241Z" style="fill:#3b4348;fill-rule:nonzero;"/><path d="M217.878,50.893c0,1.877 -0.72,3.262 -2.16,4.157c-1.44,0.895 -3.387,1.342 -5.842,1.342c-2.455,0 -4.342,-0.327 -5.662,-0.982c-1.321,-0.655 -1.981,-1.844 -1.981,-3.568c0,-1.374 0.786,-2.673 2.357,-3.894c-0.807,-0.546 -1.211,-1.375 -1.211,-2.488c0,-0.436 0.327,-1.156 0.982,-2.16l0.294,-0.458c-1.483,-1.07 -2.225,-2.646 -2.225,-4.73c0,-2.084 0.627,-3.595 1.882,-4.533c1.254,-0.938 2.918,-1.407 4.991,-1.407c0.938,0 1.866,0.109 2.782,0.327l0.524,0.098l5.269,-0.163l0,3.502l-2.454,-0.197c0.48,0.742 0.72,1.484 0.72,2.226c0,2.182 -0.557,3.687 -1.67,4.517c-1.112,0.829 -2.858,1.243 -5.236,1.243c-0.502,0 -0.95,-0.043 -1.342,-0.131c-0.219,0.568 -0.328,1.031 -0.328,1.391c0,0.361 0.186,0.606 0.557,0.737c0.371,0.131 1.244,0.207 2.618,0.229c2.749,0.022 4.626,0.387 5.63,1.096c1.003,0.71 1.505,1.992 1.505,3.846Zm-11.324,0.491c0,0.938 1.151,1.408 3.453,1.408c2.302,0 3.453,-0.546 3.453,-1.637c0,-0.589 -0.197,-0.965 -0.589,-1.129c-0.393,-0.164 -1.222,-0.256 -2.488,-0.278l-2.946,-0.229c-0.589,0.589 -0.883,1.211 -0.883,1.865Zm0.262,-13.386c0,1.592 0.834,2.389 2.503,2.389c1.67,0 2.504,-0.802 2.504,-2.406c0,-1.603 -0.834,-2.405 -2.504,-2.405c-1.669,0 -2.503,0.807 -2.503,2.422Z" style="fill:#3b4348;fill-rule:nonzero;"/><path d="M242.229,48.504c-2.312,0.502 -4.396,0.753 -6.251,0.753c-1.855,0 -3.338,-0.229 -4.451,-0.688c-1.113,-0.458 -1.986,-1.189 -2.619,-2.192c-0.632,-1.004 -1.069,-2.182 -1.309,-3.535c-0.24,-1.353 -0.36,-3.055 -0.36,-5.106c0,-4.299 0.606,-7.294 1.817,-8.985c1.211,-1.691 3.442,-2.536 6.693,-2.536c1.876,0 4.048,0.294 6.513,0.884l-0.131,3.6c-2.16,-0.327 -3.955,-0.491 -5.384,-0.491c-1.429,0 -2.449,0.191 -3.06,0.573c-0.611,0.382 -1.064,1.107 -1.358,2.176c-0.295,1.069 -0.442,2.891 -0.442,5.466c0,2.575 0.3,4.359 0.9,5.351c0.6,0.993 1.8,1.49 3.6,1.49c1.8,0 3.715,-0.153 5.744,-0.459l0.098,3.699Z" style="fill:#3b4348;fill-rule:nonzero;"/><path d="M258.038,37.605l0,6.808c0.044,0.523 0.131,0.889 0.262,1.096c0.131,0.207 0.404,0.355 0.818,0.442l-0.131,3.306c-1.113,0 -2.002,-0.077 -2.667,-0.229c-0.666,-0.153 -1.337,-0.459 -2.013,-0.917c-1.571,0.764 -3.175,1.146 -4.812,1.146c-3.382,0 -5.073,-1.789 -5.073,-5.368c0,-1.746 0.469,-2.984 1.408,-3.715c0.938,-0.731 2.378,-1.162 4.32,-1.293l3.502,-0.261l0,-1.015c0,-0.677 -0.153,-1.14 -0.458,-1.391c-0.305,-0.251 -0.796,-0.377 -1.473,-0.377l-6.153,0.262l-0.131,-3.044c2.335,-0.632 4.555,-0.949 6.661,-0.949c2.105,0 3.622,0.437 4.549,1.309c0.927,0.873 1.391,2.27 1.391,4.19Zm-7.364,4.32c-1.222,0.109 -1.833,0.764 -1.833,1.964c0,1.2 0.534,1.8 1.604,1.8c0.829,0 1.734,-0.131 2.716,-0.393l0.491,-0.13l0,-3.503l-2.978,0.262Z" style="fill:#3b4348;fill-rule:nonzero;"/><path d="M262.227,48.864l0,-16.365l4.354,0l0,1.735c1.832,-1.091 3.578,-1.8 5.236,-2.128l0,4.419c-1.767,0.371 -3.284,0.753 -4.549,1.145l-0.655,0.229l0,10.965l-4.386,0Z" style="fill:#3b4348;fill-rule:nonzero;"/><path d="M278.003,42.547c0.022,1.004 0.289,1.729 0.802,2.177c0.513,0.447 1.249,0.671 2.209,0.671c2.03,0 3.841,-0.066 5.434,-0.197l0.916,-0.098l0.066,3.24c-2.51,0.611 -4.779,0.917 -6.808,0.917c-2.466,0 -4.255,-0.655 -5.368,-1.964c-1.113,-1.309 -1.669,-3.437 -1.669,-6.382c0,-5.87 2.411,-8.805 7.233,-8.805c4.757,0 7.135,2.466 7.135,7.397l-0.327,3.044l-9.623,0Zm5.63,-3.338c0,-1.31 -0.207,-2.221 -0.622,-2.733c-0.415,-0.513 -1.14,-0.769 -2.177,-0.769c-1.036,0 -1.767,0.267 -2.192,0.801c-0.426,0.535 -0.65,1.435 -0.671,2.701l5.662,0Z" style="fill:#3b4348;fill-rule:nonzero;"/></g></g><path d="M10.627,53.332c-2.298,-0.679 -4.465,-1.925 -6.279,-3.739c-5.775,-5.774 -5.801,-15.123 -0.058,-20.864c5.743,-5.742 15.094,-5.716 20.869,0.058c1.706,1.705 2.91,3.723 3.612,5.867l0,0.001c0.15,0.457 0.277,0.92 0.381,1.388l6.586,24.011l-25.156,-6.677l0.045,-0.045Z" style="fill:#acb5bb;"/><path d="M35.74,60.197l-12.363,-21.534c-1.523,-2.338 -2.409,-5.135 -2.409,-8.141c0,-8.188 6.582,-14.837 14.69,-14.837l0.082,0.001l0.081,-0.001c8.108,0 14.691,6.649 14.691,14.837c0,3.006 -0.887,5.803 -2.41,8.141l-12.362,21.534Zm2.255,-32.187l0,-5.227l-4.559,0l0,5.227l-5.225,0l0,4.561l5.225,0l0,5.226l4.559,0l0,-5.226l5.224,0l0,-4.561l-5.224,0Z" style="fill:#3b4348;"/></g></svg>