<?xml version="1.0" encoding="UTF-8" standalone="no"?><!DOCTYPE svg PUBLIC "-//W3C//DTD SVG 1.1//EN" "http://www.w3.org/Graphics/SVG/1.1/DTD/svg11.dtd"><svg width="100%" height="100%" viewBox="0 0 288 75" version="1.1" xmlns="http://www.w3.org/2000/svg" xmlns:xlink="http://www.w3.org/1999/xlink" xml:space="preserve" xmlns:serif="http://www.serif.com/" style="fill-rule:evenodd;clip-rule:evenodd;stroke-linejoin:round;stroke-miterlimit:1.41421;"><path d="M41.352,28.157c-0.136,5.683 -1.015,10.155 -2.639,13.416c-1.624,3.261 -4.831,6.8 -9.621,10.615l-4.343,-3.003c3.816,-2.68 6.684,-5.508 8.606,-8.485c1.921,-2.976 2.922,-7.158 3.004,-12.543l-11.367,0l0,-4.465l11.407,0l0,-7.713l4.587,0c0.406,0 0.609,0.081 0.609,0.244c0,0.081 -0.034,0.169 -0.101,0.263c-0.068,0.095 -0.102,0.67 -0.102,1.726l0,5.48l16.887,0c0.514,0 0.839,0.067 0.974,0.203c0.136,0.135 0.203,0.46 0.203,0.974l0,7.715c-0.135,5.683 -1.015,10.155 -2.638,13.416c-1.624,3.261 -4.831,6.799 -9.621,10.615l-4.344,-3.004c3.816,-2.679 6.685,-5.507 8.606,-8.484c1.922,-2.977 2.923,-7.158 3.004,-12.543l0,-3.198c-0.008,-0.467 -0.045,-0.767 -0.223,-0.924c-0.23,-0.203 -0.683,-0.305 -1.36,-0.305l-11.528,0Z" style="fill:#333;fill-rule:nonzero;"/><g><path d="M100.504,53.356c-4.591,0 -7.705,-1.27 -9.343,-3.81c-1.637,-2.541 -2.456,-6.718 -2.456,-12.534c0,-5.815 0.827,-9.954 2.479,-12.418c1.653,-2.464 4.76,-3.696 9.32,-3.696c2.724,0 5.723,0.383 8.998,1.148l-0.184,4.132c-2.754,-0.49 -5.509,-0.735 -8.263,-0.735c-2.755,0 -4.622,0.819 -5.601,2.456c-0.98,1.638 -1.469,4.714 -1.469,9.228c0,4.515 0.474,7.59 1.423,9.228c0.949,1.637 2.8,2.456 5.555,2.456c2.755,0 5.54,-0.23 8.355,-0.689l0.138,4.224c-3.152,0.673 -6.136,1.01 -8.952,1.01Z" style="fill:#333;fill-rule:nonzero;"/><g><path d="M120.015,46.194c1.041,1.806 3.03,2.709 5.968,2.709c2.938,0 4.92,-0.888 5.945,-2.663c1.026,-1.775 1.538,-4.751 1.538,-8.929c0,-4.178 -0.528,-7.216 -1.584,-9.113c-1.055,-1.898 -3.022,-2.846 -5.899,-2.846c-2.877,0 -4.851,0.948 -5.922,2.846c-1.071,1.897 -1.607,4.92 -1.607,9.067c0,4.147 0.52,7.123 1.561,8.929Zm15.884,3.306c-1.866,2.571 -5.172,3.856 -9.916,3.856c-4.744,0 -8.065,-1.293 -9.962,-3.879c-1.898,-2.587 -2.846,-6.649 -2.846,-12.189c0,-5.54 0.956,-9.656 2.869,-12.35c1.913,-2.693 5.226,-4.04 9.939,-4.04c4.713,0 8.019,1.339 9.916,4.017c1.898,2.678 2.847,6.803 2.847,12.373c0,5.57 -0.949,9.641 -2.847,12.212Z" style="fill:#333;fill-rule:nonzero;"/><path d="M144.668,52.851l0,-31.448l8.906,0l9.55,26.949l0.688,0l0,-26.949l5.096,0l0,31.448l-8.723,0l-9.778,-26.994l-0.643,0l0,26.994l-5.096,0Z" style="fill:#333;fill-rule:nonzero;"/><path d="M193.561,21.403l5.326,0l-7.713,31.448l-10.008,0l-7.713,-31.448l5.326,0l6.243,26.949l2.296,0l6.243,-26.949Z" style="fill:#333;fill-rule:nonzero;"/></g><g><path d="M199.436,52.851l7.759,-31.448l10.146,0l7.804,31.448l-5.142,0l-1.698,-6.749l-12.074,0l-1.699,6.749l-5.096,0Zm11.707,-27.178l-3.902,15.93l10.054,0l-3.857,-15.93l-2.295,0Z" style="fill:#333;fill-rule:nonzero;"/><path d="M247.273,52.851l-17.629,0l0,-31.448l5.096,0l0,26.903l12.533,0l0,4.545Z" style="fill:#333;fill-rule:nonzero;"/><path d="M256.363,46.194c1.041,1.806 3.03,2.709 5.969,2.709c2.938,0 4.919,-0.888 5.945,-2.663c1.025,-1.775 1.538,-4.751 1.538,-8.929c0,-4.178 -0.528,-7.216 -1.584,-9.113c-1.056,-1.898 -3.023,-2.846 -5.899,-2.846c-2.877,0 -4.852,0.948 -5.923,2.846c-1.071,1.897 -1.607,4.92 -1.607,9.067c0,4.147 0.521,7.123 1.561,8.929Zm15.885,3.306c-1.867,2.571 -5.173,3.856 -9.916,3.856c-4.744,0 -8.065,-1.293 -9.963,-3.879c-1.897,-2.587 -2.846,-6.649 -2.846,-12.189c0,-5.54 0.956,-9.656 2.869,-12.35c1.913,-2.693 5.226,-4.04 9.94,-4.04c4.713,0 8.018,1.339 9.916,4.017c1.897,2.678 2.846,6.803 2.846,12.373c0,5.57 -0.949,9.641 -2.846,12.212Z" style="fill:#333;fill-rule:nonzero;"/></g></g><path d="M73.798,18.828l0,36.599l-31.695,18.299l-31.696,-18.299l0,-36.599l31.696,-18.3l31.695,18.3Zm-58.391,2.886l0,30.826l26.696,15.413l26.695,-15.413l0,-30.826l-26.695,-15.413l-26.696,15.413Z" style="fill:#333;"/></svg>