<?xml version="1.0" encoding="UTF-8" standalone="no"?><!DOCTYPE svg PUBLIC "-//W3C//DTD SVG 1.1//EN" "http://www.w3.org/Graphics/SVG/1.1/DTD/svg11.dtd"><svg width="100%" height="100%" viewBox="0 0 40 40" version="1.1" xmlns="http://www.w3.org/2000/svg" xmlns:xlink="http://www.w3.org/1999/xlink" xml:space="preserve" xmlns:serif="http://www.serif.com/" style="fill-rule:evenodd;clip-rule:evenodd;stroke-miterlimit:1.5;"><rect id="Illustration" x="0" y="0" width="40" height="40" style="fill:none;"/><clipPath id="_clip1"><rect x="0" y="0" width="40" height="40"/></clipPath><g clip-path="url(#_clip1)"><path d="M40,12.129c0,-1.737 -1.41,-3.147 -3.147,-3.147l-32.29,0c-1.737,0 -3.147,1.41 -3.147,3.147l0,25.176c0,1.737 1.41,3.147 3.147,3.147l32.29,0c1.737,0 3.147,-1.41 3.147,-3.147l0,-25.176Z" style="fill:#b7dcf4;"/><path d="M37.532,8.602c0.17,-1.236 -0.623,-2.368 -1.771,-2.526l-18.176,-2.504l-4.344,31.527l18.176,2.504c1.148,0.158 2.218,-0.716 2.388,-1.952l3.727,-27.049Z" style="fill:#fff;"/><path d="M33.827,6.153c0.16,-1.162 -0.601,-2.229 -1.699,-2.38l-17.383,-2.395l-4.085,29.649l17.383,2.395c1.098,0.151 2.119,-0.67 2.279,-1.832l3.505,-25.437Z" style="fill:#fff;stroke:#3b4348;stroke-width:2px;"/><path d="M29.037,3.347l-4.085,29.649" style="fill:none;stroke:#3b4348;stroke-width:2px;"/><path d="M6.886,1.378l-5.47,0.02l0.158,37.224l5.47,-0.02l-0.158,-37.224Z" style="fill:#dcf4b7;stroke:#3b4348;stroke-width:2px;"/><path d="M4.486,5.549l2.418,-0.009" style="fill:none;stroke:#3b4348;stroke-width:2px;"/><path d="M4.51,11.329l2.418,-0.009" style="fill:none;stroke:#3b4348;stroke-width:2px;"/><path d="M4.535,17.109l2.418,-0.009" style="fill:none;stroke:#3b4348;stroke-width:2px;"/><path d="M4.559,22.889l2.418,-0.009" style="fill:none;stroke:#3b4348;stroke-width:2px;"/><path d="M4.584,28.669l2.418,-0.009" style="fill:none;stroke:#3b4348;stroke-width:2px;"/><path d="M4.608,34.448l2.418,-0.008" style="fill:none;stroke:#3b4348;stroke-width:2px;"/></g></svg>