<?xml version="1.0" encoding="UTF-8" standalone="no"?><!DOCTYPE svg PUBLIC "-//W3C//DTD SVG 1.1//EN" "http://www.w3.org/Graphics/SVG/1.1/DTD/svg11.dtd"><svg width="100%" height="100%" viewBox="0 0 34 34" version="1.1" xmlns="http://www.w3.org/2000/svg" xmlns:xlink="http://www.w3.org/1999/xlink" xml:space="preserve" xmlns:serif="http://www.serif.com/" style="fill-rule:evenodd;clip-rule:evenodd;stroke-miterlimit:1.5;"><g><path d="M31.393,11.79c0,-1.303 -1.057,-2.36 -2.36,-2.36l-24.218,0c-1.302,0 -2.36,1.057 -2.36,2.36l0,18.882c0,1.303 1.058,2.361 2.36,2.361l24.218,0c1.303,0 2.36,-1.058 2.36,-2.361l0,-18.882Z" style="fill:#e6e6e6;"/><path d="M15.191,5.487c-0.264,-0.897 -1.155,-1.427 -1.988,-1.182l-13.203,3.88l6.73,22.9l13.203,-3.88c0.834,-0.245 1.296,-1.173 1.033,-2.07l-5.775,-19.648Z" style="fill:#fff;"/><path d="M16.896,3.208c-0.248,-0.844 -1.096,-1.339 -1.894,-1.105l-12.626,3.711l6.329,21.535l12.627,-3.71c0.797,-0.235 1.243,-1.11 0.995,-1.954l-5.431,-18.477Z" style="fill:#fff;stroke:#000;stroke-width:1.5px;"/><path d="M12.757,2.763l6.33,21.535" style="fill:none;stroke:#000;stroke-width:1.5px;"/><path d="M29.371,10.201l2.772,0.743l-4.838,18.063l-2.772,-0.743l4.838,-18.063Z" style="fill:#41c75e;stroke:#000;stroke-width:1.5px;"/></g></svg>