<?xml version="1.0" encoding="UTF-8" standalone="no"?><!DOCTYPE svg PUBLIC "-//W3C//DTD SVG 1.1//EN" "http://www.w3.org/Graphics/SVG/1.1/DTD/svg11.dtd"><svg width="100%" height="100%" viewBox="0 0 288 75" version="1.1" xmlns="http://www.w3.org/2000/svg" xmlns:xlink="http://www.w3.org/1999/xlink" xml:space="preserve" xmlns:serif="http://www.serif.com/" style="fill-rule:evenodd;clip-rule:evenodd;stroke-linejoin:round;stroke-miterlimit:1.41421;"><g id="Logo"><path d="M273.724,1.657c6.016,0 10.901,4.768 10.901,10.641l0,49.658c0,5.873 -4.885,10.642 -10.901,10.642l-156.406,0c-6.017,0 -10.901,-4.769 -10.901,-10.642l0,-49.658c0,-5.873 4.884,-10.641 10.901,-10.641l156.406,0Zm-1.963,5.32l-152.481,0c-4.091,0 -7.413,3.243 -7.413,7.236l0,45.828c0,3.994 3.322,7.236 7.413,7.236l152.481,0c4.092,0 7.413,-3.242 7.413,-7.236l0,-45.828c0,-3.993 -3.321,-7.236 -7.413,-7.236Z" style="fill:#3b4348;"/><g><path d="M137.88,25.564c2.847,0 5.217,0.451 7.109,1.352c1.892,0.901 2.838,2.054 2.838,3.46c0,0.612 -0.199,1.162 -0.595,1.648c-0.397,0.487 -0.901,0.73 -1.514,0.73c-0.468,0 -0.838,-0.072 -1.108,-0.216c-0.27,-0.144 -0.64,-0.379 -1.108,-0.703c-0.216,-0.216 -0.559,-0.468 -1.027,-0.757c-0.433,-0.216 -1.045,-0.396 -1.838,-0.54c-0.793,-0.144 -1.514,-0.217 -2.162,-0.217c-1.874,0 -3.532,0.433 -4.974,1.298c-1.441,0.865 -2.558,2.063 -3.351,3.595c-0.793,1.531 -1.189,3.234 -1.189,5.108c0,1.91 0.387,3.622 1.162,5.135c0.775,1.514 1.865,2.703 3.27,3.568c1.406,0.865 3.009,1.298 4.811,1.298c1.874,0 3.388,-0.289 4.541,-0.865c0.252,-0.145 0.595,-0.379 1.027,-0.703c0.361,-0.288 0.676,-0.505 0.946,-0.649c0.271,-0.144 0.604,-0.216 1,-0.216c0.721,0 1.289,0.225 1.703,0.676c0.415,0.45 0.622,1.036 0.622,1.757c0,0.756 -0.478,1.504 -1.433,2.243c-0.955,0.739 -2.234,1.342 -3.838,1.811c-1.603,0.468 -3.324,0.703 -5.162,0.703c-2.739,0 -5.154,-0.64 -7.244,-1.919c-2.09,-1.28 -3.703,-3.046 -4.838,-5.298c-1.135,-2.252 -1.703,-4.766 -1.703,-7.541c0,-2.775 0.595,-5.289 1.784,-7.541c1.189,-2.252 2.847,-4.018 4.973,-5.298c2.127,-1.279 4.559,-1.919 7.298,-1.919Z" style="fill:#3b4348;fill-rule:nonzero;"/><path d="M167.449,25.727c6.343,0 9.514,3.928 9.514,11.784l0,14.433c0,0.721 -0.243,1.334 -0.73,1.838c-0.486,0.505 -1.108,0.757 -1.864,0.757c-0.721,0 -1.325,-0.252 -1.811,-0.757c-0.487,-0.504 -0.73,-1.117 -0.73,-1.838l0,-14.433c0,-4.685 -1.982,-7.027 -5.946,-7.027c-2.127,0 -3.893,0.675 -5.298,2.027c-1.405,1.351 -2.108,3.018 -2.108,5l0,14.433c0,0.721 -0.243,1.334 -0.73,1.838c-0.487,0.505 -1.108,0.757 -1.865,0.757c-0.757,0 -1.369,-0.243 -1.838,-0.73c-0.468,-0.486 -0.703,-1.108 -0.703,-1.865l0,-34.812c0,-0.721 0.244,-1.334 0.73,-1.838c0.487,-0.505 1.09,-0.757 1.811,-0.757c0.757,0 1.378,0.252 1.865,0.757c0.487,0.504 0.73,1.117 0.73,1.838l0,13.676c0.901,-1.406 2.162,-2.604 3.784,-3.595c1.621,-0.991 3.351,-1.486 5.189,-1.486Z" style="fill:#3b4348;fill-rule:nonzero;"/><path d="M209.506,39.295c-0.036,0.649 -0.307,1.198 -0.811,1.649c-0.505,0.45 -1.099,0.675 -1.784,0.675l-19.028,0c0.252,2.631 1.252,4.739 3,6.325c1.748,1.586 3.883,2.379 6.406,2.379c1.73,0 3.135,-0.253 4.216,-0.757c1.081,-0.505 2.036,-1.153 2.865,-1.946c0.541,-0.325 1.063,-0.487 1.568,-0.487c0.612,0 1.126,0.216 1.54,0.649c0.415,0.432 0.622,0.937 0.622,1.513c0,0.757 -0.36,1.442 -1.081,2.055c-1.045,1.045 -2.433,1.928 -4.162,2.648c-1.73,0.721 -3.496,1.082 -5.298,1.082c-2.919,0 -5.487,-0.613 -7.703,-1.838c-2.216,-1.226 -3.928,-2.937 -5.136,-5.136c-1.207,-2.198 -1.81,-4.685 -1.81,-7.46c0,-3.027 0.621,-5.685 1.864,-7.973c1.244,-2.288 2.884,-4.045 4.92,-5.271c2.036,-1.225 4.225,-1.838 6.568,-1.838c2.306,0 4.468,0.595 6.486,1.784c2.019,1.19 3.64,2.829 4.866,4.92c1.225,2.09 1.856,4.432 1.892,7.027Zm-13.244,-8.974c-2.019,0 -3.766,0.568 -5.244,1.703c-1.477,1.135 -2.451,2.892 -2.919,5.271l15.947,0l0,-0.433c-0.18,-1.91 -1.036,-3.477 -2.568,-4.703c-1.532,-1.225 -3.27,-1.838 -5.216,-1.838Z" style="fill:#3b4348;fill-rule:nonzero;"/><path d="M227.777,25.564c2.847,0 5.216,0.451 7.108,1.352c1.892,0.901 2.838,2.054 2.838,3.46c0,0.612 -0.198,1.162 -0.594,1.648c-0.397,0.487 -0.901,0.73 -1.514,0.73c-0.468,0 -0.838,-0.072 -1.108,-0.216c-0.27,-0.144 -0.64,-0.379 -1.108,-0.703c-0.216,-0.216 -0.559,-0.468 -1.027,-0.757c-0.433,-0.216 -1.045,-0.396 -1.838,-0.54c-0.793,-0.144 -1.514,-0.217 -2.163,-0.217c-1.874,0 -3.531,0.433 -4.973,1.298c-1.441,0.865 -2.558,2.063 -3.351,3.595c-0.793,1.531 -1.19,3.234 -1.19,5.108c0,1.91 0.388,3.622 1.163,5.135c0.774,1.514 1.865,2.703 3.27,3.568c1.406,0.865 3.009,1.298 4.811,1.298c1.874,0 3.388,-0.289 4.541,-0.865c0.252,-0.145 0.595,-0.379 1.027,-0.703c0.36,-0.288 0.676,-0.505 0.946,-0.649c0.27,-0.144 0.604,-0.216 1,-0.216c0.721,0 1.288,0.225 1.703,0.676c0.414,0.45 0.622,1.036 0.622,1.757c0,0.756 -0.478,1.504 -1.433,2.243c-0.955,0.739 -2.234,1.342 -3.838,1.811c-1.604,0.468 -3.325,0.703 -5.162,0.703c-2.739,0 -5.154,-0.64 -7.244,-1.919c-2.09,-1.28 -3.703,-3.046 -4.838,-5.298c-1.135,-2.252 -1.703,-4.766 -1.703,-7.541c0,-2.775 0.595,-5.289 1.784,-7.541c1.189,-2.252 2.847,-4.018 4.973,-5.298c2.126,-1.279 4.559,-1.919 7.298,-1.919Z" style="fill:#3b4348;fill-rule:nonzero;"/><path d="M266.374,50.052c0.54,0.577 0.81,1.208 0.81,1.892c0,0.721 -0.279,1.325 -0.837,1.811c-0.559,0.487 -1.145,0.73 -1.757,0.73c-0.793,0 -1.424,-0.288 -1.892,-0.865l-10.65,-11.298l-3.243,2.919l0,6.703c0,0.721 -0.243,1.334 -0.73,1.838c-0.486,0.505 -1.09,0.757 -1.811,0.757c-0.756,0 -1.378,-0.252 -1.865,-0.757c-0.486,-0.504 -0.729,-1.117 -0.729,-1.838l0,-34.812c0,-0.721 0.243,-1.334 0.729,-1.838c0.487,-0.505 1.109,-0.757 1.865,-0.757c0.721,0 1.325,0.252 1.811,0.757c0.487,0.504 0.73,1.117 0.73,1.838l0,21.947l13.244,-12.163c0.613,-0.541 1.243,-0.811 1.892,-0.811c0.613,0 1.171,0.261 1.676,0.784c0.504,0.522 0.757,1.072 0.757,1.649c0,0.72 -0.343,1.369 -1.028,1.946l-9.351,8.324l10.379,11.244Z" style="fill:#3b4348;fill-rule:nonzero;"/></g><g><path d="M5.755,65.191c-0.685,0 -1.253,-0.234 -1.704,-0.703c-0.45,-0.469 -0.675,-1.027 -0.675,-1.676l0,-0.487c0,-1.189 0.739,-1.964 2.216,-2.325c2.308,-0.649 3.461,-2.451 3.461,-5.407l0,-25.792c0,-0.721 0.243,-1.334 0.73,-1.838c0.487,-0.505 1.108,-0.757 1.865,-0.757c0.721,0 1.325,0.252 1.812,0.757c0.486,0.504 0.73,1.117 0.73,1.838l0,27.09c0,1.874 -0.388,3.514 -1.163,4.92c-0.775,1.406 -1.811,2.488 -3.109,3.244c-1.298,0.757 -2.685,1.136 -4.163,1.136Zm5.839,-42.824c-1.045,0 -1.793,-0.189 -2.244,-0.568c-0.45,-0.378 -0.675,-0.982 -0.675,-1.811l0,-0.866c0,-0.865 0.243,-1.477 0.729,-1.838c0.487,-0.36 1.235,-0.541 2.244,-0.541c1.01,0 1.74,0.19 2.19,0.568c0.451,0.379 0.676,0.982 0.676,1.811l0,0.866c0,0.865 -0.234,1.478 -0.703,1.838c-0.468,0.361 -1.207,0.541 -2.217,0.541Z" style="fill:#3b4348;fill-rule:nonzero;"/><path d="M43.496,26.206c0.757,0 1.379,0.252 1.866,0.757c0.486,0.504 0.73,1.117 0.73,1.838l0,14.383c0,3.749 -1.037,6.66 -3.109,8.733c-2.073,2.072 -5.002,3.109 -8.787,3.109c-3.749,0 -6.651,-1.037 -8.705,-3.109c-2.055,-2.073 -3.082,-4.984 -3.082,-8.733l0,-14.383c0,-0.721 0.243,-1.334 0.73,-1.838c0.486,-0.505 1.09,-0.757 1.811,-0.757c0.757,0 1.379,0.252 1.865,0.757c0.487,0.504 0.73,1.117 0.73,1.838l0,14.383c0,4.722 2.217,7.083 6.651,7.083c2.199,0 3.875,-0.594 5.029,-1.784c1.153,-1.19 1.73,-2.956 1.73,-5.299l0,-14.383c0,-0.721 0.243,-1.334 0.73,-1.838c0.487,-0.505 1.09,-0.757 1.811,-0.757Z" style="fill:#3b4348;fill-rule:nonzero;"/><path d="M52.148,50.105c-0.325,-0.504 -0.487,-0.991 -0.487,-1.46c0,-0.721 0.378,-1.333 1.135,-1.838c0.361,-0.252 0.775,-0.379 1.244,-0.379c0.649,0 1.244,0.271 1.784,0.811c1.082,1.226 2.244,2.145 3.488,2.758c1.244,0.613 2.731,0.919 4.461,0.919c1.37,-0.036 2.577,-0.351 3.623,-0.946c1.045,-0.595 1.568,-1.559 1.568,-2.893c0,-1.225 -0.532,-2.163 -1.595,-2.811c-1.064,-0.649 -2.623,-1.244 -4.678,-1.785c-2.018,-0.541 -3.694,-1.108 -5.028,-1.703c-1.334,-0.595 -2.46,-1.46 -3.38,-2.595c-0.919,-1.136 -1.378,-2.623 -1.378,-4.461c0,-1.622 0.459,-3.046 1.378,-4.272c0.92,-1.226 2.145,-2.181 3.677,-2.866c1.532,-0.685 3.199,-1.027 5.002,-1.027c1.73,0 3.451,0.324 5.164,0.973c1.712,0.649 3.109,1.64 4.19,2.974c0.433,0.505 0.649,1.027 0.649,1.568c0,0.577 -0.288,1.136 -0.865,1.676c-0.361,0.325 -0.811,0.487 -1.352,0.487c-0.649,0 -1.171,-0.216 -1.568,-0.649c-0.757,-0.865 -1.685,-1.532 -2.785,-2c-1.099,-0.469 -2.316,-0.703 -3.649,-0.703c-1.37,0 -2.533,0.279 -3.488,0.838c-0.955,0.558 -1.433,1.505 -1.433,2.838c0.036,1.262 0.586,2.199 1.649,2.812c1.064,0.613 2.695,1.208 4.894,1.784c1.91,0.505 3.496,1.046 4.758,1.623c1.262,0.576 2.325,1.432 3.19,2.568c0.865,1.135 1.298,2.622 1.298,4.461c0,1.694 -0.487,3.163 -1.46,4.407c-0.973,1.243 -2.244,2.199 -3.812,2.865c-1.568,0.667 -3.235,1.001 -5.002,1.001c-2.271,0 -4.37,-0.397 -6.299,-1.19c-1.928,-0.793 -3.56,-2.055 -4.893,-3.785Z" style="fill:#3b4348;fill-rule:nonzero;"/><path d="M87.24,31.234l0,16.114c0,1.802 0.811,2.703 2.433,2.703c0.252,0 0.595,-0.063 1.027,-0.189c0.433,-0.126 0.775,-0.189 1.028,-0.189c0.468,0 0.865,0.198 1.189,0.594c0.325,0.397 0.487,0.902 0.487,1.514c0,0.757 -0.433,1.406 -1.298,1.947c-0.865,0.541 -1.838,0.811 -2.92,0.811c-1.189,0 -2.28,-0.126 -3.271,-0.378c-0.991,-0.253 -1.874,-0.893 -2.65,-1.92c-0.775,-1.027 -1.162,-2.586 -1.162,-4.677l0,-16.33l-3.136,0c-0.685,0 -1.253,-0.225 -1.703,-0.675c-0.451,-0.451 -0.676,-1.019 -0.676,-1.704c0,-0.685 0.225,-1.243 0.676,-1.676c0.45,-0.432 1.018,-0.649 1.703,-0.649l3.136,0l0,-4.542c0,-0.721 0.243,-1.333 0.73,-1.838c0.487,-0.505 1.108,-0.757 1.865,-0.757c0.721,0 1.325,0.252 1.812,0.757c0.486,0.505 0.73,1.117 0.73,1.838l0,4.542l4.488,0c0.684,0 1.252,0.226 1.703,0.676c0.45,0.451 0.676,1.018 0.676,1.703c0,0.685 -0.226,1.244 -0.676,1.677c-0.451,0.432 -1.019,0.648 -1.703,0.648l-4.488,0Z" style="fill:#3b4348;fill-rule:nonzero;"/></g></g></svg>