<?xml version="1.0" encoding="UTF-8" standalone="no"?><!DOCTYPE svg PUBLIC "-//W3C//DTD SVG 1.1//EN" "http://www.w3.org/Graphics/SVG/1.1/DTD/svg11.dtd"><svg width="100%" height="100%" viewBox="0 0 288 75" version="1.1" xmlns="http://www.w3.org/2000/svg" xmlns:xlink="http://www.w3.org/1999/xlink" xml:space="preserve" xmlns:serif="http://www.serif.com/" style="fill-rule:evenodd;clip-rule:evenodd;stroke-linejoin:round;stroke-miterlimit:1.41421;"><path d="M0.848,35.698l16.888,16.74l-0.908,10.678l9.999,-1.666l12.277,12.804l12.277,-12.804l9.999,1.666l-0.908,-10.678l16.888,-16.74l-17.875,5.142l1.346,-16.572l-21.727,20.285l-21.727,-20.285l1.346,16.572l-17.875,-5.142Z" style="fill:#3b4348;"/><path d="M39.104,44.553l-21.727,-20.285l3.164,-5.704l18.563,-18.564l18.564,18.564l3.163,5.704l-21.727,20.285Z" style="fill:#6a7881;"/><path d="M57.668,18.564l19.692,17.134l-17.875,5.142l-1.817,-22.276Z" style="fill:#76858e;"/><path d="M57.668,18.564l-18.564,-18.564l0,22.276l18.564,-3.712Z" style="fill:#76858e;"/><path d="M60.831,24.268l-1.346,16.572l-20.381,3.713l21.727,-20.285Z" style="fill:#535e65;"/><path d="M60.831,24.268l-21.727,-1.992l0,22.277l21.727,-20.285Z" style="fill:#6a7881;"/><path d="M59.485,40.84l1.895,22.276l-22.276,-18.563l20.381,-3.713Z" style="fill:#76858e;"/><path d="M61.38,63.116l-22.276,-3.713l0,-14.85l22.276,18.563Z" style="fill:#3b4348;"/><path d="M57.668,18.564l3.163,5.704l-21.727,-1.992l18.564,-3.712Z" style="fill:#84929a;"/><path d="M57.668,18.564l-1.744,-6.815l-4.342,0.729l6.086,6.086Z" style="fill:#84929a;"/><path d="M59.485,40.84l0.987,11.598l16.888,-16.74l-17.875,5.142Z" style="fill:#535e65;"/><path d="M39.104,59.403l12.277,2.047l-12.277,12.804l0,-14.851Z" style="fill:#535e65;"/><path d="M20.541,18.564l-19.693,17.134l17.875,5.142l1.818,-22.276Z" style="fill:#6a7881;"/><path d="M20.541,18.564l18.563,-18.564l0,22.276l-18.563,-3.712Z" style="fill:#6a7881;"/><path d="M17.377,24.268l1.346,16.572l20.381,3.713l-21.727,-20.285Z" style="fill:#3b4348;"/><path d="M17.377,24.268l21.727,-1.992l0,22.277l-21.727,-20.285Z" style="fill:#76858e;"/><path d="M18.723,40.84l-1.895,22.276l22.276,-18.563l-20.381,-3.713Z" style="fill:#6a7881;"/><path d="M16.828,63.116l22.276,-3.713l0,-14.85l-22.276,18.563Z" style="fill:#535e65;"/><path d="M20.541,18.564l-3.164,5.704l21.727,-1.992l-18.563,-3.712Z" style="fill:#84929a;"/><path d="M20.541,18.564l1.743,-6.815l4.342,0.729l-6.085,6.086Z" style="fill:#84929a;"/><path d="M18.723,40.84l-0.987,11.598l-16.888,-16.74l17.875,5.142Z" style="fill:#3b4348;"/><path d="M39.104,59.403l-12.277,2.047l12.277,12.804l0,-14.851Z" style="fill:#3b4348;"/><g><path d="M116.656,49.288c0.159,0.223 0.239,0.446 0.239,0.669c0,0.35 -0.119,0.605 -0.358,0.764c-0.239,0.159 -0.486,0.239 -0.741,0.239c-0.255,0 -0.477,-0.112 -0.669,-0.335l-14.331,-17.723l-7.166,6.641l0,10.175c-0.031,0.286 -0.143,0.525 -0.334,0.716c-0.191,0.191 -0.414,0.287 -0.669,0.287c-0.318,0 -0.565,-0.096 -0.74,-0.287c-0.175,-0.191 -0.263,-0.43 -0.263,-0.716l0,-31.434c0,-0.286 0.096,-0.525 0.287,-0.716c0.191,-0.191 0.43,-0.287 0.716,-0.287c0.287,0 0.526,0.096 0.717,0.287c0.191,0.191 0.286,0.43 0.286,0.716l0,18.822l20.638,-19.347c0.191,-0.191 0.414,-0.287 0.668,-0.287c0.255,0 0.478,0.096 0.669,0.287c0.191,0.191 0.287,0.414 0.287,0.669c0,0.255 -0.096,0.478 -0.287,0.669l-13.232,12.325l14.283,17.866Z" style="fill:#3b4348;fill-rule:nonzero;"/><path d="M141.259,44.988c0.222,0 0.414,0.088 0.573,0.263c0.159,0.175 0.239,0.374 0.239,0.597c0,0.223 -0.064,0.414 -0.191,0.574c-1.051,1.401 -2.357,2.547 -3.918,3.439c-1.56,0.892 -3.232,1.338 -5.016,1.338c-2.388,0 -4.506,-0.51 -6.353,-1.529c-1.847,-1.019 -3.288,-2.468 -4.323,-4.347c-1.035,-1.879 -1.553,-4.061 -1.553,-6.545c0,-2.548 0.502,-4.785 1.505,-6.712c1.003,-1.926 2.333,-3.399 3.989,-4.418c1.656,-1.02 3.423,-1.529 5.302,-1.529c1.879,0 3.623,0.406 5.231,1.218c1.608,0.812 2.922,2.03 3.941,3.655c1.019,1.624 1.561,3.63 1.624,6.019c0,0.255 -0.095,0.485 -0.286,0.692c-0.191,0.207 -0.414,0.311 -0.669,0.311l-18.774,0l0,0.621c0,1.974 0.398,3.782 1.194,5.422c0.797,1.64 1.975,2.938 3.535,3.893c1.561,0.956 3.44,1.433 5.637,1.433c1.529,0 2.97,-0.374 4.324,-1.122c1.353,-0.749 2.412,-1.696 3.176,-2.843c0.223,-0.286 0.494,-0.43 0.813,-0.43Zm-9.746,-16.958c-1.178,0 -2.38,0.31 -3.606,0.931c-1.227,0.621 -2.309,1.545 -3.249,2.771c-0.939,1.226 -1.568,2.715 -1.887,4.467l17.58,0l0,-0.43c-0.159,-1.625 -0.677,-3.018 -1.553,-4.18c-0.875,-1.163 -1.958,-2.046 -3.248,-2.652c-1.29,-0.605 -2.635,-0.907 -4.037,-0.907Z" style="fill:#3b4348;fill-rule:nonzero;"/><path d="M166.291,26.119c0.286,0 0.517,0.095 0.692,0.287c0.175,0.191 0.263,0.414 0.263,0.668l0,21.306c0,2.389 -0.486,4.483 -1.457,6.282c-0.971,1.799 -2.309,3.185 -4.013,4.156c-1.704,0.972 -3.638,1.457 -5.804,1.457c-1.401,0 -2.683,-0.167 -3.846,-0.501c-1.162,-0.335 -2.141,-0.773 -2.937,-1.314c-0.574,-0.382 -0.749,-0.812 -0.526,-1.29c0.223,-0.382 0.494,-0.573 0.812,-0.573c0.159,0 0.303,0.048 0.43,0.143c0.764,0.478 1.68,0.9 2.747,1.266c1.067,0.366 2.205,0.549 3.416,0.549c1.815,0 3.423,-0.429 4.824,-1.289c1.402,-0.86 2.492,-2.062 3.273,-3.607c0.78,-1.545 1.17,-3.304 1.17,-5.279l0,-2.149c-0.732,1.433 -1.903,2.619 -3.511,3.558c-1.608,0.94 -3.272,1.41 -4.992,1.41c-2.866,0 -5,-0.82 -6.401,-2.46c-1.402,-1.641 -2.102,-3.894 -2.102,-6.76l0,-14.905c0,-0.254 0.087,-0.477 0.262,-0.668c0.176,-0.192 0.406,-0.287 0.693,-0.287c0.287,0 0.518,0.095 0.693,0.287c0.175,0.191 0.262,0.414 0.262,0.668l0,14.905c0,4.936 2.198,7.404 6.593,7.404c1.369,0 2.715,-0.358 4.037,-1.074c1.321,-0.717 2.396,-1.649 3.224,-2.795c0.828,-1.147 1.242,-2.325 1.242,-3.535l0,-14.905c0,-0.254 0.088,-0.477 0.263,-0.668c0.175,-0.192 0.406,-0.287 0.693,-0.287Z" style="fill:#3b4348;fill-rule:nonzero;"/><path d="M173.361,46.899c-0.223,-0.35 -0.335,-0.653 -0.335,-0.907c0,-0.223 0.128,-0.43 0.382,-0.621c0.16,-0.16 0.351,-0.239 0.574,-0.239c0.318,0 0.573,0.127 0.764,0.382c1.847,2.643 4.427,3.965 7.739,3.965c1.688,0 3.169,-0.422 4.443,-1.266c1.274,-0.844 1.91,-1.982 1.91,-3.416c0,-1.465 -0.557,-2.563 -1.672,-3.296c-1.114,-0.732 -2.643,-1.337 -4.586,-1.815c-2.579,-0.637 -4.609,-1.489 -6.09,-2.556c-1.481,-1.067 -2.222,-2.572 -2.222,-4.514c0,-1.879 0.749,-3.432 2.246,-4.658c1.496,-1.226 3.423,-1.839 5.78,-1.839c1.306,0 2.603,0.255 3.893,0.764c1.29,0.51 2.46,1.322 3.511,2.437c0.223,0.191 0.335,0.414 0.335,0.668c0,0.287 -0.112,0.542 -0.335,0.765c-0.254,0.127 -0.461,0.191 -0.621,0.191c-0.223,0 -0.414,-0.096 -0.573,-0.287c-1.656,-1.815 -3.79,-2.723 -6.401,-2.723c-1.688,0 -3.113,0.414 -4.276,1.242c-1.162,0.828 -1.743,1.975 -1.743,3.44c0.095,1.369 0.724,2.428 1.887,3.177c1.162,0.748 2.874,1.409 5.135,1.982c1.624,0.414 2.97,0.868 4.037,1.362c1.066,0.493 1.918,1.186 2.555,2.078c0.637,0.891 0.956,2.054 0.956,3.487c0,2.006 -0.773,3.591 -2.317,4.753c-1.545,1.162 -3.559,1.744 -6.043,1.744c-3.631,0 -6.608,-1.433 -8.933,-4.3Z" style="fill:#3b4348;fill-rule:nonzero;"/><path d="M205.797,26.692c0.223,0 0.43,0.096 0.621,0.287c0.191,0.191 0.287,0.398 0.287,0.621c0,0.255 -0.088,0.47 -0.263,0.645c-0.175,0.175 -0.39,0.262 -0.645,0.262l-5.255,0l0,17.007c0,1.401 0.247,2.333 0.741,2.795c0.493,0.461 1.122,0.692 1.887,0.692c0.127,0 0.31,-0.032 0.549,-0.095c0.239,-0.064 0.438,-0.096 0.597,-0.096c0.223,0 0.414,0.088 0.574,0.263c0.159,0.175 0.238,0.374 0.238,0.597c0,0.287 -0.191,0.533 -0.573,0.74c-0.382,0.207 -0.828,0.311 -1.337,0.311c-0.797,0 -1.465,-0.056 -2.007,-0.167c-0.541,-0.112 -1.107,-0.542 -1.696,-1.29c-0.589,-0.748 -0.883,-1.967 -0.883,-3.654l0,-17.103l-3.918,0c-0.223,0 -0.43,-0.095 -0.621,-0.286c-0.191,-0.191 -0.286,-0.398 -0.286,-0.621c0,-0.255 0.087,-0.47 0.262,-0.645c0.176,-0.175 0.391,-0.263 0.645,-0.263l3.918,0l0,-6.067c0,-0.255 0.095,-0.477 0.286,-0.669c0.191,-0.191 0.414,-0.286 0.669,-0.286c0.287,0 0.517,0.095 0.693,0.286c0.175,0.192 0.262,0.414 0.262,0.669l0,6.067l5.255,0Z" style="fill:#3b4348;fill-rule:nonzero;"/><path d="M233.648,38.683c0,2.356 -0.51,4.482 -1.529,6.377c-1.019,1.895 -2.428,3.392 -4.228,4.491c-1.799,1.098 -3.798,1.648 -5.995,1.648c-2.197,0 -4.196,-0.55 -5.995,-1.648c-1.8,-1.099 -3.217,-2.604 -4.252,-4.515c-1.035,-1.911 -1.552,-4.028 -1.552,-6.353c0,-2.357 0.517,-4.491 1.552,-6.402c1.035,-1.91 2.444,-3.415 4.228,-4.514c1.783,-1.099 3.79,-1.648 6.019,-1.648c2.197,0 4.196,0.549 5.995,1.648c1.8,1.099 3.209,2.604 4.228,4.514c1.019,1.911 1.529,4.045 1.529,6.402Zm-1.911,0c0,-2.039 -0.422,-3.87 -1.266,-5.494c-0.844,-1.624 -2.014,-2.906 -3.511,-3.846c-1.497,-0.939 -3.185,-1.409 -5.064,-1.409c-1.847,0 -3.527,0.47 -5.04,1.409c-1.513,0.94 -2.699,2.222 -3.559,3.846c-0.86,1.624 -1.29,3.455 -1.29,5.494c0,2.006 0.43,3.821 1.29,5.446c0.86,1.624 2.046,2.906 3.559,3.845c1.513,0.94 3.193,1.409 5.04,1.409c1.879,0 3.567,-0.461 5.064,-1.385c1.497,-0.924 2.667,-2.205 3.511,-3.846c0.844,-1.64 1.266,-3.463 1.266,-5.469Z" style="fill:#3b4348;fill-rule:nonzero;"/><path d="M250.75,26.119c2.834,0 4.968,0.836 6.401,2.508c1.433,1.672 2.15,3.845 2.15,6.521l0,14.618c0,0.254 -0.096,0.477 -0.287,0.668c-0.191,0.191 -0.414,0.287 -0.669,0.287c-0.286,0 -0.517,-0.096 -0.692,-0.287c-0.176,-0.191 -0.263,-0.414 -0.263,-0.668l0,-14.427c0,-2.166 -0.565,-3.941 -1.696,-5.327c-1.131,-1.385 -2.842,-2.078 -5.135,-2.078c-1.402,0 -2.779,0.335 -4.133,1.003c-1.353,0.669 -2.46,1.577 -3.32,2.723c-0.86,1.147 -1.29,2.373 -1.29,3.679l0,14.427c0,0.254 -0.095,0.477 -0.286,0.668c-0.191,0.191 -0.414,0.287 -0.669,0.287c-0.287,0 -0.517,-0.096 -0.693,-0.287c-0.175,-0.191 -0.262,-0.414 -0.262,-0.668l0,-21.927c0,-0.255 0.095,-0.478 0.286,-0.669c0.191,-0.191 0.414,-0.287 0.669,-0.287c0.287,0 0.518,0.096 0.693,0.287c0.175,0.191 0.262,0.414 0.262,0.669l0,3.2c0.924,-1.433 2.222,-2.611 3.894,-3.535c1.672,-0.923 3.352,-1.385 5.04,-1.385Z" style="fill:#3b4348;fill-rule:nonzero;"/><path d="M286.1,44.988c0.223,0 0.414,0.088 0.573,0.263c0.16,0.175 0.239,0.374 0.239,0.597c0,0.223 -0.063,0.414 -0.191,0.574c-1.051,1.401 -2.356,2.547 -3.917,3.439c-1.561,0.892 -3.232,1.338 -5.016,1.338c-2.388,0 -4.506,-0.51 -6.353,-1.529c-1.848,-1.019 -3.289,-2.468 -4.324,-4.347c-1.035,-1.879 -1.552,-4.061 -1.552,-6.545c0,-2.548 0.501,-4.785 1.504,-6.712c1.004,-1.926 2.333,-3.399 3.989,-4.418c1.656,-1.02 3.424,-1.529 5.303,-1.529c1.879,0 3.623,0.406 5.231,1.218c1.608,0.812 2.922,2.03 3.941,3.655c1.019,1.624 1.56,3.63 1.624,6.019c0,0.255 -0.095,0.485 -0.286,0.692c-0.192,0.207 -0.414,0.311 -0.669,0.311l-18.774,0l0,0.621c0,1.974 0.398,3.782 1.194,5.422c0.796,1.64 1.975,2.938 3.535,3.893c1.561,0.956 3.44,1.433 5.637,1.433c1.529,0 2.97,-0.374 4.323,-1.122c1.354,-0.749 2.413,-1.696 3.177,-2.843c0.223,-0.286 0.494,-0.43 0.812,-0.43Zm-9.745,-16.958c-1.178,0 -2.381,0.31 -3.607,0.931c-1.226,0.621 -2.309,1.545 -3.248,2.771c-0.94,1.226 -1.569,2.715 -1.887,4.467l17.58,0l0,-0.43c-0.16,-1.625 -0.677,-3.018 -1.553,-4.18c-0.876,-1.163 -1.959,-2.046 -3.248,-2.652c-1.29,-0.605 -2.636,-0.907 -4.037,-0.907Z" style="fill:#3b4348;fill-rule:nonzero;"/></g></svg>