<?xml version="1.0" encoding="UTF-8" standalone="no"?><!DOCTYPE svg PUBLIC "-//W3C//DTD SVG 1.1//EN" "http://www.w3.org/Graphics/SVG/1.1/DTD/svg11.dtd"><svg width="100%" height="100%" viewBox="0 0 40 40" version="1.1" xmlns="http://www.w3.org/2000/svg" xmlns:xlink="http://www.w3.org/1999/xlink" xml:space="preserve" xmlns:serif="http://www.serif.com/" style="fill-rule:evenodd;clip-rule:evenodd;stroke-miterlimit:1.5;"><rect id="Design" x="0" y="0" width="40" height="40" style="fill:none;"/><clipPath id="_clip1"><rect x="0" y="0" width="40" height="40"/></clipPath><g clip-path="url(#_clip1)"><path d="M38.039,3.447c0,-1.902 -1.544,-3.447 -3.447,-3.447l-31.145,0c-1.902,0 -3.447,1.545 -3.447,3.447l0,27.576c0,1.903 1.545,3.447 3.447,3.447l31.145,0c1.903,0 3.447,-1.544 3.447,-3.447l0,-27.576Z" style="fill:#b7dcf4;"/><rect x="13.039" y="3.398" width="23.875" height="20.121" style="fill:#fff;"/><rect x="16.164" y="1" width="22.875" height="19" style="fill:#fff;stroke:#3b4348;stroke-width:2px;"/><path d="M21,16.804l4.712,-4.712l3.77,4.049l5.655,-5.922" style="fill:none;stroke:#f4b7dc;stroke-width:2px;"/><path d="M20.52,13.804l4.713,-4.712l3.77,4.049l5.654,-5.922" style="fill:none;stroke:#3b4348;stroke-width:2px;"/><path d="M19.049,4.142l6.597,0" style="fill:none;stroke:#3b4348;stroke-width:2px;"/><path d="M11.373,27.222l-9.987,0.51l0.511,9.987l9.986,-0.51l-0.51,-9.987Z" style="fill:#f3dfb6;stroke:#3b4348;stroke-width:2px;"/><path d="M28.433,27.156l-9.994,0.332l0.331,9.994l9.995,-0.332l-0.332,-9.994Z" style="fill:#f3dfb6;stroke:#3b4348;stroke-width:2px;"/><path d="M1.897,10.71l9.986,0.51l-0.51,9.987l-9.987,-0.511l0.511,-9.986Z" style="fill:#f3dfb6;stroke:#3b4348;stroke-width:2px;"/></g></svg>