<?xml version="1.0" encoding="UTF-8" standalone="no"?><!DOCTYPE svg PUBLIC "-//W3C//DTD SVG 1.1//EN" "http://www.w3.org/Graphics/SVG/1.1/DTD/svg11.dtd"><svg width="100%" height="100%" viewBox="0 0 32 31" version="1.1" xmlns="http://www.w3.org/2000/svg" xmlns:xlink="http://www.w3.org/1999/xlink" xml:space="preserve" xmlns:serif="http://www.serif.com/" style="fill-rule:evenodd;clip-rule:evenodd;stroke-miterlimit:1.5;"><g><path d="M28.909,3.187c0,-1.426 -1.158,-2.585 -2.585,-2.585l-23.359,0c-1.427,0 -2.585,1.159 -2.585,2.585l0,20.683c0,1.427 1.158,2.585 2.585,2.585l23.359,0c1.427,0 2.585,-1.158 2.585,-2.585l0,-20.683Z" style="fill:#e6e6e6;"/><rect x="10.159" y="3.15" width="17.906" height="15.091" style="fill:#fff;"/><rect x="12.503" y="1.352" width="17.156" height="14.25" style="fill:#fff;stroke:#000;stroke-width:1.5px;"/><path d="M16.13,13.205l3.534,-3.534l2.828,3.037l4.241,-4.442" style="fill:none;stroke:#41c75e;stroke-width:1.5px;"/><path d="M15.77,10.955l3.535,-3.534l2.827,3.037l4.241,-4.442" style="fill:none;stroke:#000;stroke-width:1.5px;"/><path d="M14.667,3.709l4.948,0" style="fill:none;stroke:#000;stroke-width:1.5px;"/><path d="M8.91,21.018l-7.491,0.383l0.383,7.491l7.491,-0.383l-0.383,-7.491Z" style="fill:#fff;stroke:#000;stroke-width:1.5px;"/><path d="M21.705,20.969l-7.496,0.249l0.249,7.496l7.496,-0.249l-0.249,-7.496Z" style="fill:#fff;stroke:#000;stroke-width:1.5px;"/><path d="M1.802,8.634l7.491,0.383l-0.383,7.49l-7.491,-0.383l0.383,-7.49Z" style="fill:#fff;stroke:#000;stroke-width:1.5px;"/></g></svg>